<svg width="61" height="66" viewBox="0 0 61 66" fill="none" xmlns="http://www.w3.org/2000/svg">
<path fill-rule="evenodd" clip-rule="evenodd" d="M22.7368 7.63135C19.2487 7.63135 16.421 10.6381 16.421 14.347C16.421 18.056 19.2487 21.0627 22.7368 21.0627C26.225 21.0627 29.0526 18.056 29.0526 14.347C29.0526 10.6381 26.225 7.63135 22.7368 7.63135ZM11.3684 18.3764C7.8803 18.3764 5.05263 21.3832 5.05263 25.0921C5.05263 28.8011 7.8803 31.8078 11.3684 31.8078C14.8565 31.8078 17.6842 28.8011 17.6842 25.0921C17.6842 21.3832 14.8565 18.3764 11.3684 18.3764ZM31.5789 14.347C31.5789 10.6381 34.4066 7.63135 37.8947 7.63135C41.3828 7.63135 44.2105 10.6381 44.2105 14.347C44.2105 18.056 41.3828 21.0627 37.8947 21.0627C34.4066 21.0627 31.5789 18.056 31.5789 14.347ZM49.2632 18.3764C45.775 18.3764 42.9474 21.3832 42.9474 25.0921C42.9474 28.8011 45.775 31.8078 49.2632 31.8078C52.7513 31.8078 55.5789 28.8011 55.5789 25.0921C55.5789 21.3832 52.7513 18.3764 49.2632 18.3764ZM41.542 36.6581C42.2738 37.5752 43.0173 38.5069 43.8063 39.4906C44.0031 39.6999 44.2026 39.9105 44.4037 40.1227C47.5824 43.4785 51.1366 47.2306 50.4 52.3847C49.6674 55.0978 47.8232 57.8378 44.5137 58.6168C43.6649 58.7899 41.9601 58.5533 39.7561 58.2475C37.1712 57.8888 33.8998 57.4349 30.5179 57.4349H30.0632C26.7097 57.4349 23.4649 57.8889 20.8903 58.2492C18.6547 58.562 16.9245 58.8041 16.0674 58.6168C12.7579 57.8378 10.9137 55.1247 10.181 52.3847C9.46857 47.2583 13.0204 43.5088 16.1981 40.1543C16.4007 39.9405 16.6017 39.7283 16.8 39.5174C18.225 37.7611 19.4944 36.1703 20.801 34.5329C21.5327 33.6158 22.2762 32.684 23.0653 31.7004C24.2526 30.2498 25.7179 28.7992 27.4863 28.1545C27.7642 28.047 28.0421 27.9664 28.32 27.9127C28.9768 27.7784 29.6589 27.7784 30.3158 27.7784C30.9726 27.7784 31.6547 27.7784 32.2863 27.8859C32.5642 27.9396 32.8421 28.0202 33.12 28.1276C34.8884 28.7723 36.3789 30.2229 37.541 31.6735C38.9661 33.4298 40.2354 35.0206 41.542 36.6581Z" fill="#333333"/>
</svg>
